# xmcd
#
# Track frame offsets: 
#        150
#        17671
#        33958
#
# Disc length: 657 seconds
#
# Revision: 1
# Processed by: cddbd v1.5.2PL0 Copyright (c) Steve Scherf et al.
# Submitted via: ExactAudioCopy v1.3
#
DISCID=17028f03
DTITLE=Status Quo - Little White Lies
DYEAR=1999
DGENRE=
TTITLE0=Little White Lies [Edit]
TTITLE1=I Knew The Bride
TTITLE2=Pictures Of Matchstick Men ['99 Version]
EXTD=
EXTT0=
EXTT1=
EXTT2=
PLAYORDER=
